<?xml version="1.0" standalone="no"?>
<!DOCTYPE svg PUBLIC "-//W3C//DTD SVG 20010904//EN"
 "http://www.w3.org/TR/2001/REC-SVG-20010904/DTD/svg10.dtd">
<svg version="1.0" xmlns="http://www.w3.org/2000/svg"
 width="704.000000pt" height="1472.000000pt" viewBox="0 0 704.000000 1472.000000"
 preserveAspectRatio="xMidYMid meet">

<g transform="translate(0.000000,1472.000000) scale(0.100000,-0.100000)"
fill="#000000" stroke="none">
<path d="M3260 13787 c0 -15 -61 -17 -93 -2 -10 4 -17 4 -16 -1 4 -21 -2 -28
-11 -14 -8 12 -12 12 -18 2 -5 -8 -19 -11 -33 -8 -13 4 -51 8 -84 10 -51 4
-57 3 -42 -8 14 -11 15 -15 3 -19 -8 -3 -24 -3 -35 0 -13 3 -21 1 -21 -7 0 -7
-8 -9 -21 -5 -16 5 -19 4 -14 -5 6 -9 4 -11 -4 -5 -7 4 -23 3 -34 -3 -12 -6
-49 -15 -82 -21 -88 -16 -157 -36 -149 -44 4 -4 1 -7 -7 -8 -28 -1 -52 -8 -58
-16 -10 -14 -68 -43 -85 -43 -9 0 -16 -4 -16 -9 0 -5 -19 -12 -41 -16 -29 -5
-37 -10 -28 -16 10 -6 5 -10 -18 -15 -18 -4 -31 -10 -28 -13 2 -4 -13 -16 -33
-26 -20 -10 -60 -36 -89 -57 -29 -21 -57 -38 -63 -38 -5 0 -10 -5 -10 -11 0
-5 -5 -7 -12 -3 -7 4 -8 3 -4 -4 4 -7 -3 -17 -18 -24 -14 -6 -26 -16 -26 -22
0 -6 -30 -30 -65 -54 -39 -26 -63 -48 -59 -54 5 -8 1 -9 -10 -5 -10 4 -15 3
-11 -3 7 -11 -29 -32 -40 -22 -5 4 -5 2 -2 -4 3 -6 -3 -18 -15 -28 -17 -15
-18 -20 -7 -27 10 -6 11 -9 1 -9 -7 0 -42 -29 -77 -65 -36 -36 -62 -65 -59
-65 4 0 -9 -19 -28 -42 -41 -51 -95 -144 -78 -133 6 4 4 -8 -6 -26 -10 -19
-18 -38 -19 -44 -2 -23 -17 -92 -27 -123 -5 -18 -11 -43 -13 -55 -4 -32 -17
-81 -24 -92 -4 -5 -13 -23 -20 -39 -11 -27 -11 -28 4 -16 16 13 15 11 0 -25
-10 -22 -19 -71 -20 -110 -2 -38 -8 -85 -13 -103 -6 -18 -7 -30 -3 -27 5 2 7
-28 6 -68 -1 -39 2 -80 7 -90 5 -10 11 -100 13 -200 2 -100 9 -203 14 -229 6
-27 15 -78 21 -115 5 -36 13 -69 18 -72 10 -7 42 -102 42 -126 0 -9 4 -14 8
-11 5 3 14 -20 21 -52 7 -31 17 -72 22 -90 10 -29 8 -35 -14 -52 -37 -30 -67
-102 -67 -162 0 -33 3 -48 9 -40 11 18 31 -37 31 -84 0 -18 5 -36 10 -39 6 -4
8 -10 5 -15 -3 -5 -1 -11 5 -15 5 -3 9 -62 8 -143 0 -113 3 -148 20 -199 18
-57 48 -103 61 -95 3 2 8 -2 11 -10 7 -18 27 -20 33 -4 4 9 -3 16 -16 20 -17
4 -31 26 -57 93 -30 76 -34 99 -33 163 7 318 10 344 39 316 8 -8 14 -25 15
-38 l0 -23 12 25 c16 35 29 42 47 24 12 -11 15 -41 15 -133 0 -66 4 -117 8
-114 4 2 5 -6 2 -20 -4 -16 -2 -26 8 -30 16 -6 40 -109 35 -152 l-3 -30 -30
42 c-53 75 -89 40 -38 -36 13 -19 23 -37 23 -41 0 -4 11 -11 24 -14 19 -5 26
-15 31 -43 12 -73 13 -148 3 -160 -8 -10 -6 -13 5 -13 16 0 21 -16 32 -92 7
-45 6 -48 -20 -58 -28 -11 -96 1 -125 23 -8 6 0 -5 18 -24 30 -31 37 -34 92
-34 l59 0 37 -150 c73 -301 162 -490 316 -666 l50 -57 29 -239 c15 -131 35
-286 43 -345 21 -152 76 -305 100 -281 3 4 6 1 6 -5 0 -7 8 -21 17 -32 16 -19
18 -19 25 -3 5 15 7 14 7 -6 1 -16 5 -21 15 -18 8 3 17 1 20 -6 3 -7 3 0 0 14
-3 15 -1 30 5 34 8 4 8 12 0 26 -17 33 -1 35 23 4 42 -53 51 -62 36 -36 -13
22 -13 27 1 43 9 10 16 24 17 31 0 6 2 30 3 52 l3 40 11 -31 c8 -19 17 -29 26
-26 8 3 11 0 7 -7 -4 -6 -2 -11 4 -11 7 0 9 -7 6 -16 -3 -8 -2 -12 4 -9 12 7
51 -35 43 -48 -4 -6 1 -8 11 -4 16 6 17 3 12 -19 -4 -14 -3 -23 2 -20 9 5 39
-10 32 -17 -3 -3 -14 -7 -26 -11 -15 -5 -24 0 -32 16 -11 21 -12 20 -9 -12 1
-23 10 -42 25 -54 13 -10 21 -24 18 -32 -3 -7 -2 -16 3 -18 4 -3 8 16 10 40 1
30 -2 44 -8 39 -6 -3 -11 -3 -11 2 0 12 49 33 55 23 3 -4 7 -25 10 -45 3 -29
1 -36 -10 -31 -8 3 -15 1 -15 -3 0 -5 -3 -17 -6 -25 -5 -12 -2 -15 10 -10 9 3
16 1 16 -5 0 -6 5 -11 10 -11 6 0 10 7 10 15 0 8 5 15 10 15 12 0 12 2 1 -37
-7 -22 -6 -32 1 -30 6 1 22 -14 35 -33 14 -19 31 -34 39 -34 8 1 14 -2 14 -7
0 -5 7 -9 16 -9 8 0 20 -14 26 -30 5 -17 15 -29 22 -27 13 5 9 40 -5 45 -5 2
-9 10 -9 18 0 9 3 13 8 11 4 -3 25 -1 47 3 l40 8 -37 1 c-37 1 -50 14 -25 25
6 3 2 3 -10 0 -17 -4 -23 -1 -23 10 0 20 17 20 54 1 31 -17 61 -20 34 -4 -30
17 -23 40 10 33 15 -3 39 -8 55 -11 15 -3 27 -9 27 -14 0 -6 8 -5 19 1 14 7
28 7 47 -1 16 -5 38 -8 50 -5 11 3 24 3 28 -1 10 -10 79 -4 151 11 62 14 115
16 115 4 0 -3 -6 -9 -12 -12 -10 -5 -10 -7 0 -12 6 -3 12 -12 12 -20 0 -7 6
-11 14 -8 11 4 13 0 9 -18 -3 -17 -2 -19 5 -9 5 7 15 10 21 7 16 -10 14 -26
-3 -26 -11 0 -12 -7 -7 -27 8 -29 36 -40 45 -17 8 22 63 18 71 -5 6 -20 6 -20
26 0 10 10 19 23 19 29 0 5 6 7 13 4 7 -2 30 11 50 31 33 32 37 33 47 17 10
-15 11 -15 7 3 -5 25 14 45 43 45 11 0 20 5 20 11 0 8 5 7 15 -1 13 -11 14
-10 9 4 -3 9 -2 16 4 16 22 0 20 -30 -3 -49 -31 -24 -32 -36 -3 -20 21 11 21
11 -3 -19 -13 -17 -30 -31 -38 -31 -8 -1 -11 -4 -8 -7 9 -10 -73 -80 -89 -76
-9 2 -11 -3 -8 -12 8 -20 330 249 495 414 243 242 310 397 295 675 -4 66 -2
207 4 314 l11 193 44 89 c55 109 80 173 105 269 26 102 58 271 66 348 7 66 12
70 60 51 44 -16 102 -1 145 38 42 38 79 121 79 178 0 19 8 56 19 82 29 76 44
188 37 285 -3 47 -1 133 4 190 19 189 15 260 -15 325 -33 70 -47 123 -33 123
6 0 7 9 3 23 -3 12 -6 27 -6 32 1 33 10 140 11 140 4 0 10 46 11 87 1 27 5 45
10 42 11 -7 11 -1 -1 30 -6 18 -6 26 1 26 7 0 8 24 4 71 -4 46 -3 69 3 65 6
-3 9 5 8 18 0 13 -3 23 -6 21 -3 -2 -5 41 -6 96 0 57 3 99 9 99 5 0 5 6 -2 13
-6 8 -8 16 -5 19 3 4 1 22 -4 42 -6 20 -7 38 -2 41 5 3 6 21 3 40 -4 24 -2 35
7 35 7 0 10 7 6 17 -11 28 -17 121 -6 98 8 -18 9 -17 9 7 1 15 -3 30 -9 33 -5
3 -10 18 -10 33 0 30 -22 109 -41 144 -6 13 -33 48 -59 78 -60 70 -82 105 -73
114 4 4 0 4 -8 1 -9 -3 -22 1 -29 10 -10 12 -10 15 1 15 10 1 8 4 -3 11 -20
11 -25 53 -5 46 6 -2 11 -10 9 -16 -2 -13 14 -15 23 -2 3 5 -6 18 -20 29 -14
11 -25 25 -25 32 0 6 -4 8 -10 5 -5 -3 -10 -1 -10 4 0 6 -7 11 -15 11 -8 0
-15 7 -15 16 0 8 -4 13 -9 10 -5 -3 -14 1 -21 9 -7 8 -20 15 -29 16 -10 0 -11
2 -3 6 6 2 12 9 12 15 0 6 -7 8 -15 4 -18 -7 -18 1 -1 33 11 20 11 27 -3 44
-34 42 -44 47 -75 45 -42 -2 -53 6 -53 39 0 17 -9 33 -22 41 -24 16 -28 34 -6
26 8 -4 15 -2 15 4 0 5 -12 13 -27 17 -19 4 -23 9 -14 14 10 7 9 11 -4 22 -10
8 -31 28 -48 46 -16 18 -34 30 -39 27 -5 -3 -7 -1 -6 4 4 13 -113 106 -154
123 -18 7 -44 24 -58 36 -14 13 -30 23 -37 23 -6 0 -42 16 -79 35 -37 19 -72
35 -79 35 -7 0 -39 14 -71 30 -37 20 -51 24 -37 12 12 -11 19 -22 16 -26 -10
-9 -51 -7 -58 3 -3 5 -19 12 -35 16 -28 6 -73 24 -112 46 -10 5 -25 9 -33 9
-9 0 -14 4 -11 9 4 5 -3 7 -14 4 -14 -4 -35 5 -63 28 -23 18 -33 23 -23 11 19
-22 19 -22 -1 -22 -11 0 -23 3 -27 7 -3 4 -17 8 -29 10 -33 4 -100 25 -114 36
-12 9 -54 13 -204 20 -42 2 -81 7 -88 11 -6 4 -11 1 -11 -7z m1410 -533 c0 -2
-7 -4 -15 -4 -8 0 -15 4 -15 10 0 5 7 7 15 4 8 -4 15 -8 15 -10z m300 -424 c0
-5 -2 -10 -4 -10 -3 0 -8 5 -11 10 -3 6 -1 10 4 10 6 0 11 -4 11 -10z m-1637
-222 c39 0 80 -4 91 -9 21 -9 21 -10 1 -6 -11 2 -27 -3 -35 -11 -13 -14 -12
-15 4 -9 27 11 59 -2 52 -19 -4 -9 -1 -12 5 -9 6 4 8 14 5 22 -4 9 -1 13 6 10
7 -2 12 -9 11 -15 -2 -6 4 -9 12 -6 18 7 19 20 3 28 -7 3 0 2 16 -1 20 -4 27
-2 22 5 -4 8 -2 10 8 6 8 -3 12 -12 9 -20 -3 -9 -12 -13 -22 -9 -11 4 -10 1 4
-13 12 -10 32 -19 45 -18 19 1 25 -4 23 -18 -1 -15 4 -17 28 -12 22 4 29 2 29
-10 0 -8 -4 -13 -9 -10 -11 7 -24 -24 -15 -33 4 -3 9 -1 11 6 7 19 40 -19 35
-40 -3 -12 2 -20 16 -24 20 -5 20 -6 5 -21 -12 -12 -18 -13 -21 -4 -4 13 -22
17 -22 4 0 -5 16 -16 35 -25 33 -16 47 -37 25 -37 -5 0 -10 3 -10 8 0 4 -11 8
-24 8 -19 1 -23 -2 -18 -20 2 -11 10 -25 16 -31 16 -15 19 -46 4 -43 -7 2 -12
-3 -10 -9 1 -7 -2 -13 -8 -13 -5 0 7 -16 28 -35 32 -30 34 -34 12 -26 -14 4
-25 13 -25 19 0 6 -3 14 -7 18 -5 4 -8 0 -8 -9 0 -9 -4 -17 -10 -17 -5 0 -7 7
-4 15 4 8 1 15 -5 15 -19 0 -12 -32 9 -37 19 -5 19 -6 -3 -24 -12 -10 -16 -18
-9 -19 6 0 12 4 12 9 0 15 34 18 60 4 21 -10 22 -13 6 -13 -18 0 -18 -1 2 -19
12 -10 22 -26 22 -35 0 -9 5 -16 11 -16 6 0 9 -7 5 -15 -3 -8 -1 -15 4 -15 6
0 10 5 10 11 0 5 5 7 10 4 6 -4 7 -11 4 -17 -4 -6 2 -8 17 -4 23 7 23 6 5 -8
-17 -14 -17 -16 -3 -22 10 -3 24 -3 33 0 8 3 13 2 10 -3 -10 -15 23 -34 48
-29 16 3 27 0 30 -9 4 -9 1 -11 -6 -7 -7 5 -8 3 -3 -5 4 -7 18 -11 31 -8 13 2
24 0 24 -4 0 -5 5 -9 11 -9 7 0 20 -9 30 -21 10 -11 22 -18 28 -15 5 3 16 3
25 0 24 -9 18 -64 -7 -64 -12 0 -16 4 -11 13 4 6 -5 1 -21 -13 -16 -14 -25
-18 -21 -10 4 8 1 7 -7 -3 -11 -14 -16 -15 -20 -5 -4 8 -6 7 -6 -4 -1 -12 -9
-18 -27 -18 -14 0 -23 -4 -19 -10 3 -5 1 -10 -5 -10 -6 0 -8 -4 -5 -10 6 -10
-3 -11 -70 -14 -18 -1 -29 -6 -28 -13 3 -15 -7 -16 -41 -3 -20 7 -24 6 -19 -5
4 -11 -3 -15 -25 -15 -19 0 -36 -7 -44 -18 -7 -10 -31 -22 -53 -25 -27 -4 -46
-16 -63 -37 -13 -17 -28 -27 -33 -24 -12 7 -49 -33 -49 -53 0 -7 -4 -13 -10
-13 -5 0 -10 -9 -10 -20 0 -11 -6 -20 -12 -20 -9 0 -13 -16 -12 -50 1 -48 -4
-55 -33 -51 -7 1 -10 -5 -7 -12 3 -8 -3 -22 -12 -31 -9 -10 -17 -32 -16 -49 0
-17 -2 -36 -6 -41 -14 -23 -22 -185 -11 -208 5 -9 10 -30 11 -45 1 -15 4 -32
7 -38 3 -5 4 -22 2 -37 -1 -16 1 -28 6 -28 4 0 9 -28 11 -62 2 -34 6 -67 10
-73 3 -5 5 -20 3 -33 -1 -13 2 -29 8 -35 5 -7 8 -31 7 -55 -2 -23 1 -39 5 -36
12 7 28 -36 31 -81 1 -20 6 -39 10 -41 11 -7 10 -44 -1 -44 -5 0 -12 6 -14 13
-4 8 -6 7 -6 -3 -1 -8 -10 -21 -21 -28 -11 -7 -20 -19 -20 -27 0 -8 -6 -15
-13 -15 -8 0 -20 -12 -28 -27 -8 -16 -22 -37 -31 -47 -10 -11 -18 -23 -18 -27
0 -4 -10 -11 -22 -15 -13 -4 -35 -16 -49 -27 -40 -29 -87 -17 -145 38 -26 25
-52 45 -58 46 -6 0 -19 2 -28 4 -10 2 -18 -1 -18 -5 0 -14 -88 -62 -100 -55
-5 3 -10 1 -10 -4 0 -6 -9 -11 -20 -11 -11 0 -20 5 -20 11 0 5 -4 8 -10 4 -12
-8 4 -49 33 -85 12 -15 28 -36 36 -47 9 -13 21 -19 33 -15 37 9 2 -35 -38 -48
-22 -8 -34 -17 -30 -25 3 -8 -3 -19 -11 -27 -15 -11 -16 -11 -10 5 6 15 4 16
-13 7 -11 -6 -20 -15 -20 -20 0 -5 -6 -7 -14 -4 -7 3 -27 -7 -45 -21 -17 -15
-31 -22 -31 -17 0 5 7 12 15 16 8 3 15 10 15 16 0 6 -7 4 -16 -4 -26 -26 -54
-39 -54 -24 0 6 -7 3 -15 -8 -13 -17 -16 -17 -26 -4 -9 13 -10 12 -5 -3 9 -27
-2 -39 -24 -27 -15 8 -18 7 -15 -3 3 -7 -1 -21 -10 -32 -12 -16 -14 -17 -9 -2
3 9 2 17 -2 18 -5 0 -17 2 -26 4 -14 3 -18 -4 -18 -30 0 -19 -5 -37 -10 -40
-6 -4 -8 -21 -5 -39 5 -24 2 -36 -12 -46 -15 -12 -16 -12 -6 0 19 21 17 51 -3
43 -13 -5 -15 -2 -9 18 4 13 4 21 0 17 -5 -4 -14 -3 -22 3 -9 9 -13 8 -13 0 0
-6 5 -11 10 -11 6 0 10 -4 10 -10 0 -5 -6 -10 -12 -10 -23 0 -39 -16 -32 -33
3 -9 10 -14 15 -11 5 3 9 0 9 -5 0 -28 -44 3 -55 40 -5 16 -14 20 -40 17 -19
-1 -37 1 -41 5 -13 13 -23 7 -17 -9 4 -12 2 -15 -8 -12 -7 2 -16 15 -19 29 -4
14 -13 23 -21 21 -12 -1 -15 6 -12 30 3 23 1 29 -5 20 -7 -11 -15 -8 -37 12
-21 20 -24 26 -11 26 20 0 20 4 0 47 -10 20 -22 32 -30 29 -8 -3 -11 0 -8 8 3
7 -2 20 -10 29 -9 9 -16 22 -16 30 0 8 -7 17 -15 21 -8 3 -15 12 -15 21 0 18
-12 19 -28 3 -9 -9 -12 -6 -12 15 0 15 -5 27 -11 27 -6 0 -9 7 -5 15 8 21 -10
19 -19 -2 -5 -13 -11 -3 -21 37 -17 67 -34 153 -38 200 -2 19 -7 45 -11 58 -6
19 -4 21 11 16 16 -5 16 -4 4 5 -12 8 -15 33 -15 111 0 55 3 100 8 100 4 0 7
7 7 15 0 8 -6 15 -12 15 -9 0 -9 3 -2 8 16 11 24 41 14 47 -16 10 -12 25 6 25
13 0 15 6 9 27 -4 16 -3 25 1 21 10 -11 36 43 30 65 -6 23 28 59 49 51 8 -4
15 -12 15 -18 0 -14 45 -56 60 -56 6 0 10 -11 10 -25 0 -14 5 -25 11 -25 15 0
39 -26 32 -34 -4 -3 5 -6 18 -6 14 0 29 -4 34 -9 15 -15 145 -38 195 -35 25 2
83 11 130 22 47 11 95 18 108 15 13 -2 21 0 18 5 -3 5 10 15 29 22 19 8 35 17
35 22 0 4 11 8 24 8 27 0 40 22 23 40 -9 10 -7 11 11 5 16 -5 22 -2 22 9 0 9
5 16 11 16 5 0 7 -4 4 -10 -3 -5 1 -10 9 -10 9 0 16 4 16 9 0 5 7 16 15 25 13
13 7 14 -54 14 -71 -1 -91 5 -91 25 0 7 4 6 10 -3 8 -12 11 -13 19 -1 6 9 11
10 15 2 4 -6 12 -9 17 -5 6 3 20 7 32 9 12 2 36 6 53 10 20 4 34 3 38 -4 4 -6
13 -8 19 -5 9 5 9 4 0 -6 -6 -7 -10 -18 -9 -24 2 -6 1 -8 -1 -3 -10 17 -23 5
-17 -17 4 -19 -2 -32 -25 -57 -17 -18 -29 -35 -26 -37 3 -3 11 0 17 6 17 17
28 15 28 -5 0 -14 2 -15 9 -4 5 7 14 11 20 7 7 -5 9 -1 5 11 -4 14 -4 15 4 3
17 -26 25 -63 13 -56 -6 4 -11 0 -11 -8 0 -9 5 -16 11 -16 8 0 8 -4 -1 -15
-12 -15 -6 -35 11 -35 5 0 9 7 9 15 0 8 9 19 20 25 11 6 20 21 20 33 1 12 12
40 25 62 14 22 28 47 31 55 3 8 10 24 14 35 10 23 25 87 22 97 -1 4 -4 35 -8
70 -3 35 -9 65 -13 68 -4 3 -8 23 -10 45 -1 22 -9 47 -17 56 -8 8 -14 21 -14
27 0 16 -17 15 -23 0 -2 -7 -4 2 -5 20 0 18 4 32 11 32 7 1 2 6 -11 13 -12 7
-20 16 -16 19 3 4 1 15 -6 25 -11 17 -11 17 -6 0 3 -11 2 -15 -4 -12 -6 3 -7
17 -4 31 4 14 2 24 -5 24 -6 0 -11 6 -11 13 -1 13 -100 67 -123 67 -8 0 -20 7
-27 15 -9 11 -32 15 -81 15 -37 0 -70 4 -74 10 -3 5 -12 7 -20 3 -9 -3 -26 2
-40 11 -14 9 -45 16 -72 16 -37 0 -45 3 -33 11 12 8 9 9 -10 4 -14 -3 -41 -8
-60 -10 -30 -4 -31 -3 -10 4 21 8 18 9 -22 10 -27 1 -48 6 -48 11 0 6 -11 8
-25 6 -14 -3 -25 0 -25 5 0 5 4 9 8 9 4 0 8 12 9 28 1 15 -1 21 -4 15 -7 -18
-24 -16 -17 2 4 11 -1 15 -17 15 -22 1 -22 2 6 15 17 7 24 14 16 14 -8 1 -5 9
10 22 17 14 20 22 12 25 -21 9 -15 19 12 20 14 1 25 -2 25 -8 0 -5 5 -6 10 -3
6 4 5 12 -5 21 -12 12 -12 19 -3 34 7 10 16 16 20 14 4 -3 8 3 8 13 0 13 12
23 35 32 19 7 33 17 30 22 -4 5 -14 2 -23 -8 -16 -15 -17 -15 -20 0 -2 9 -11
18 -20 18 -15 1 -15 2 1 6 9 2 15 9 11 14 -3 5 -9 7 -14 4 -4 -3 -10 4 -13 15
-3 11 -2 18 2 15 5 -2 13 7 19 20 7 14 16 25 22 25 6 0 8 5 5 10 -3 6 -1 10 6
10 7 0 9 3 6 6 -4 4 -13 1 -22 -6 -13 -11 -15 -9 -16 11 -1 13 -1 33 0 44 2
17 0 17 -8 5 -8 -11 -11 -11 -11 -2 0 7 -4 11 -9 7 -16 -9 -8 39 10 63 16 20
18 21 21 5 2 -12 6 -14 11 -7 3 6 -2 22 -13 34 -27 31 -25 36 5 16 13 -9 28
-16 32 -16 4 0 2 4 -6 9 -8 5 -11 16 -6 30 3 12 11 19 16 16 5 -4 9 3 9 14 0
27 36 24 46 -4 6 -17 8 -15 11 12 3 24 8 30 20 26 12 -5 14 -3 8 7 -6 10 -4
12 11 7 18 -7 18 -6 -1 9 -20 16 -20 16 4 11 14 -4 31 -1 38 5 7 6 13 8 13 4
0 -4 12 0 28 7 15 8 49 18 75 21 56 9 110 29 100 39 -3 4 -1 8 5 8 26 3 31 4
38 12 12 12 26 8 18 -5 -5 -7 8 -1 27 14 54 43 196 108 244 113 6 0 9 6 8 13
-2 7 2 12 7 12 6 0 10 -9 10 -20 0 -11 -4 -20 -10 -20 -5 0 -10 -6 -10 -12 1
-7 9 -3 19 10 12 14 32 23 53 23 l33 2 -30 5 c-30 5 -30 5 -5 12 14 4 29 5 33
2 5 -2 41 -4 80 -4z m237 -43 c-7 -8 -17 -15 -22 -15 -11 0 14 29 26 30 5 0 3
-7 -4 -15z m58 -40 c-3 -3 -9 2 -12 12 -6 14 -5 15 5 6 7 -7 10 -15 7 -18z
m-724 -30 c-10 -8 -23 -15 -28 -15 -6 0 -1 7 10 15 10 8 23 15 28 15 6 0 1 -7
-10 -15z m777 -32 c13 -16 12 -17 -3 -4 -10 7 -18 15 -18 17 0 8 8 3 21 -13z
m44 -103 c-3 -5 -11 -10 -16 -10 -6 0 -7 5 -4 10 3 6 11 10 16 10 6 0 7 -4 4
-10z m-1235 -20 c0 -5 -5 -10 -11 -10 -5 0 -7 5 -4 10 3 6 8 10 11 10 2 0 4
-4 4 -10z m1204 -46 c4 -10 1 -14 -6 -12 -15 5 -23 28 -10 28 5 0 13 -7 16
-16z m26 -110 c0 -2 -9 0 -20 6 -11 6 -20 13 -20 16 0 2 9 0 20 -6 11 -6 20
-13 20 -16z m-1326 -90 c9 -22 -3 -32 -14 -14 -12 19 -12 30 -1 30 5 0 12 -7
15 -16z m1361 6 c3 -5 1 -10 -4 -10 -6 0 -11 5 -11 10 0 6 2 10 4 10 3 0 8 -4
11 -10z m-1397 -116 c-4 -3 -12 5 -18 18 -12 22 -12 22 6 6 10 -10 15 -20 12
-24z m-8 -35 c0 6 5 11 11 11 8 0 8 -5 -1 -15 -10 -12 -10 -15 0 -15 8 0 11
-3 8 -6 -8 -7 -48 18 -48 30 0 4 7 3 15 -4 10 -9 15 -9 15 -1z m-60 -249 c0
-5 -5 -10 -11 -10 -5 0 -7 5 -4 10 3 6 8 10 11 10 2 0 4 -4 4 -10z m1335 -80
c-3 -5 -12 -10 -18 -10 -7 0 -6 4 3 10 19 12 23 12 15 0z m-94 -83 c-13 -13
-26 -3 -16 12 3 6 11 8 17 5 6 -4 6 -10 -1 -17z m-634 -23 c-3 -3 -12 -4 -19
-1 -8 3 -5 6 6 6 11 1 17 -2 13 -5z m68 -45 c11 -17 -1 -21 -15 -4 -8 9 -8 15
-2 15 6 0 14 -5 17 -11z m-650 -40 c-22 -5 -24 -7 -10 -9 11 -1 25 -3 30 -5 6
-1 15 -3 20 -4 6 -1 -9 -10 -32 -21 -24 -10 -43 -24 -43 -30 0 -5 -10 -10 -23
-10 -27 0 -65 25 -55 36 4 4 13 2 20 -3 20 -16 50 -12 43 5 -4 11 1 13 20 10
13 -3 22 -1 19 3 -3 5 -13 9 -23 9 -9 0 -26 7 -37 16 -18 14 -18 15 4 4 20
-10 25 -7 24 10 0 3 16 4 36 1 l37 -5 -30 -7z m-79 -24 c18 -13 18 -14 -4 -8
-12 3 -25 9 -28 14 -8 14 10 11 32 -6z m-72 -1 c9 -3 16 -12 16 -20 0 -16 -46
-19 -55 -4 -4 7 3 9 22 5 27 -6 27 -6 9 9 -21 17 -18 20 8 10z m233 -10 c-3
-3 -12 -4 -19 -1 -8 3 -5 6 6 6 11 1 17 -2 13 -5z m1615 -36 c-12 -12 -35 -1
-27 12 3 5 13 6 21 3 10 -4 12 -9 6 -15z m48 13 c0 -5 -7 -11 -14 -14 -10 -4
-13 -1 -9 9 6 15 23 19 23 5z m-100 -11 c0 -5 -4 -10 -9 -10 -6 0 -13 5 -16
10 -3 6 1 10 9 10 9 0 16 -4 16 -10z m57 -26 c-3 -3 -12 -4 -19 -1 -8 3 -5 6
6 6 11 1 17 -2 13 -5z m-97 -24 c-20 -13 -33 -13 -25 0 3 6 14 10 23 10 15 0
15 -2 2 -10z m60 -21 c0 7 5 9 10 6 6 -3 10 -10 10 -16 0 -15 -27 -10 -41 9
-13 15 -12 16 4 3 12 -9 17 -10 17 -2z m40 -4 c0 -8 -2 -15 -4 -15 -2 0 -6 7
-10 15 -3 8 -1 15 4 15 6 0 10 -7 10 -15z m-1404 -7 c4 -6 3 -8 -3 -5 -5 3
-21 0 -36 -8 -14 -7 -29 -10 -33 -7 -4 4 -4 0 -2 -8 3 -8 11 -14 17 -12 6 1
11 -3 11 -9 0 -5 6 -7 13 -3 8 5 7 2 -2 -10 -11 -13 -16 -14 -22 -4 -7 10 -9
10 -9 1 0 -7 -9 -13 -20 -13 -11 0 -20 6 -20 13 0 9 -3 8 -9 -2 -5 -7 -14 -10
-20 -7 -6 4 -11 2 -11 -3 0 -6 -4 -11 -10 -11 -5 0 -10 9 -10 20 0 11 6 20 13
20 7 0 8 3 2 8 -5 4 -10 14 -10 22 0 8 5 18 10 22 17 12 143 9 151 -4z m1359
-89 c-10 -15 -25 -10 -19 6 4 8 10 12 15 9 5 -3 7 -10 4 -15z m-91 -41 c4 -18
20 -49 36 -69 16 -20 27 -39 24 -42 -3 -2 -35 2 -72 11 -37 8 -83 15 -102 16
-24 1 -35 6 -35 16 0 9 7 14 18 12 9 -2 17 2 17 7 0 10 88 80 101 81 4 0 9
-15 13 -32z m316 -15 c0 -24 -10 -38 -37 -52 -26 -13 -28 -7 -12 38 12 34 49
45 49 14z m-1653 -7 c-5 -15 -24 -18 -24 -3 0 8 6 14 14 14 7 0 12 -5 10 -11z
m1079 -11 c-8 -31 0 -32 33 -2 19 17 17 12 -8 -20 -31 -41 -51 -54 -51 -34 0
6 5 13 10 16 6 4 8 11 5 16 -14 22 -13 49 2 49 11 0 14 -6 9 -25z m-1026 5 c0
-5 -2 -10 -4 -10 -3 0 -8 5 -11 10 -3 6 -1 10 4 10 6 0 11 -4 11 -10z m358
-20 c12 -12 22 -29 22 -38 0 -10 5 -23 11 -29 6 -6 9 -15 6 -20 -12 -19 -43
-6 -86 35 -51 48 -47 55 7 15 l37 -28 -18 28 c-10 15 -15 27 -11 27 4 0 1 7
-6 15 -20 24 12 19 38 -5z m-518 -43 c10 -23 30 -53 44 -66 14 -13 23 -28 20
-32 -3 -5 4 -9 15 -9 12 0 21 4 21 9 0 4 25 8 55 7 30 0 55 -4 55 -8 0 -4 6
-5 14 -2 8 3 12 13 9 24 -6 21 37 120 52 120 5 0 24 -9 40 -21 17 -11 40 -24
53 -29 12 -5 22 -17 22 -26 0 -12 -9 -15 -37 -13 -78 6 -147 -26 -98 -45 8 -3
15 -1 15 5 0 6 5 7 11 3 15 -9 -17 -28 -35 -21 -8 3 -18 1 -24 -5 -15 -15 -82
-19 -82 -4 0 7 -3 6 -9 -2 -12 -20 -72 -18 -83 2 -5 9 -14 14 -19 11 -5 -4 -7
-11 -4 -16 4 -5 1 -9 -4 -9 -6 0 -11 5 -11 11 0 8 -6 7 -17 -2 -11 -10 -14
-10 -9 -1 11 18 -3 35 -18 23 -8 -7 -20 -3 -40 14 -15 13 -26 25 -25 27 1 2
-1 13 -5 25 -6 18 -1 29 21 48 39 34 51 31 73 -18z m1730 3 c0 -5 -4 -10 -10
-10 -5 0 -10 5 -10 10 0 6 5 10 10 10 6 0 10 -4 10 -10z m-283 -37 c-11 -10
-67 -21 -67 -12 0 5 7 9 16 9 8 0 13 4 10 9 -3 4 6 6 20 3 14 -2 23 -6 21 -9z
m-1007 -3 c0 -5 -4 -10 -10 -10 -5 0 -10 5 -10 10 0 6 5 10 10 10 6 0 10 -4
10 -10z m918 -5 c1 -5 -24 -9 -55 -10 -83 -3 -85 -4 -78 -16 4 -6 -2 -5 -14 3
-27 17 -27 26 2 31 34 7 142 0 145 -8z m122 -15 c-18 -11 -24 -6 -16 16 5 14
9 15 19 5 9 -9 9 -14 -3 -21z m70 14 c0 -8 -9 -14 -20 -14 -11 0 -20 6 -20 13
0 7 9 13 20 14 11 1 20 -4 20 -13z m1137 -76 c-3 -8 -6 -5 -6 6 -1 11 2 17 5
13 3 -3 4 -12 1 -19z m-1384 -25 c-7 -2 -13 -9 -13 -15 0 -6 7 -8 15 -4 9 3
19 -3 25 -14 14 -26 30 -26 23 0 -4 16 -1 20 18 19 13 0 18 -3 12 -6 -7 -2
-13 -9 -13 -14 0 -6 5 -7 12 -3 7 4 8 3 4 -4 -7 -12 3 -15 34 -13 10 0 11 -1
3 -5 -26 -11 -13 -26 17 -20 33 6 38 -1 13 -19 -13 -10 -8 -11 30 -8 25 2 48
0 51 -6 4 -6 18 -6 36 -1 18 5 32 5 35 -1 4 -5 1 -9 -6 -9 -7 0 -9 -3 -6 -6 4
-4 13 -2 20 4 8 7 17 9 20 5 4 -3 7 0 7 7 0 7 3 10 6 7 4 -4 1 -14 -6 -22 -11
-14 -10 -14 14 -5 34 13 39 13 31 0 -8 -13 44 -2 63 13 7 5 15 7 19 4 3 -4 -2
-9 -11 -13 -9 -3 -16 -10 -16 -15 0 -11 30 0 54 20 18 15 18 15 8 -6 -10 -19
-9 -20 8 -16 11 3 20 9 20 13 0 4 10 10 23 13 12 2 29 7 37 9 8 3 12 3 8 1 -5
-3 -8 -9 -8 -14 0 -9 28 -1 48 15 23 17 55 18 49 2 -5 -12 -1 -13 19 -6 17 7
32 6 47 -2 12 -7 30 -11 39 -10 10 2 19 -6 23 -20 4 -12 14 -28 22 -36 10 -11
11 -18 3 -28 -7 -7 -9 -22 -5 -33 3 -10 1 -22 -5 -26 -15 -9 -12 -45 5 -51 20
-8 19 -22 -1 -26 -11 -2 -18 -15 -19 -35 -2 -23 1 -30 11 -26 8 3 12 -3 11
-16 -1 -14 -5 -17 -11 -11 -17 17 -23 11 -19 -14 3 -13 -1 -27 -8 -31 -9 -6
-11 -3 -6 8 3 9 2 19 -3 22 -6 4 -10 3 -10 -2 0 -4 -3 -18 -6 -30 -4 -15 -1
-23 13 -26 16 -4 16 -6 -4 -12 -13 -4 -23 -14 -23 -22 0 -9 6 -13 15 -9 8 3
15 1 15 -4 0 -6 -4 -10 -9 -10 -5 0 -12 -12 -16 -27 -7 -26 -8 -26 -15 -8 -8
19 -9 19 -9 -2 -1 -13 -5 -23 -11 -23 -5 0 -7 -13 -4 -29 6 -27 4 -29 -17 -24
-22 6 -23 5 -10 -11 11 -13 11 -20 3 -28 -9 -9 -12 -8 -12 6 0 9 -4 14 -10 11
-5 -3 -10 -17 -10 -31 0 -25 -15 -33 -23 -11 -4 7 -6 6 -6 -4 -1 -9 -7 -19
-15 -22 -9 -4 -12 -14 -9 -27 4 -16 2 -19 -11 -14 -11 4 -16 1 -16 -10 0 -9
-5 -16 -11 -16 -5 0 -8 4 -5 9 3 5 -1 12 -10 15 -8 3 -13 2 -10 -3 3 -5 0 -14
-7 -20 -10 -8 -19 -7 -33 4 -10 8 -28 14 -39 14 -11 0 -14 -3 -7 -6 6 -2 12
-9 12 -15 0 -6 -10 -4 -23 5 -13 8 -45 16 -73 18 -27 2 -52 8 -56 14 -4 5 -11
6 -15 1 -4 -4 2 -16 15 -26 12 -10 17 -20 11 -22 -20 -7 1 -36 23 -30 18 4 19
3 7 -17 -17 -26 -25 -26 -38 -3 -10 16 -10 16 -11 -1 0 -17 -1 -17 -16 -2 -9
9 -22 14 -29 11 -8 -3 -16 6 -20 22 -5 20 -8 23 -16 11 -8 -13 -13 -6 -10 14
1 5 -3 6 -9 2 -5 -3 -10 -14 -10 -23 -1 -15 -2 -15 -13 -2 -7 8 -23 17 -37 19
-14 2 -32 5 -40 6 -8 2 -17 4 -19 4 -2 1 2 8 9 16 10 12 9 15 -4 15 -13 0 -16
5 -10 23 4 12 11 25 16 28 5 3 3 11 -5 17 -8 7 -12 23 -10 36 3 14 -2 39 -10
55 -10 20 -12 31 -4 31 6 0 2 6 -8 14 -16 11 -17 17 -7 29 7 8 9 17 5 19 -4 1
-19 26 -33 53 -14 28 -30 54 -37 58 -7 4 -13 16 -13 27 0 10 -7 26 -16 34 -14
15 -14 18 5 42 22 28 27 54 11 54 -5 0 -9 6 -7 13 1 6 -2 11 -8 10 -14 -2 -13
119 1 134 11 12 45 13 54 2 3 -4 23 -9 45 -12 38 -5 39 -5 18 11 -11 9 -26 27
-33 40 -7 14 -17 21 -26 18 -13 -5 -16 0 -13 21 0 4 -9 10 -20 15 -25 9 -28
38 -3 37 10 0 12 -3 5 -6z m1456 -120 c-1 -113 -13 -126 -20 -21 -3 42 9 138
17 138 2 0 4 -53 3 -117z m-1412 31 c-3 -3 -12 -4 -19 -1 -8 3 -5 6 6 6 11 1
17 -2 13 -5z m1327 -76 c3 -13 6 -31 6 -42 0 -15 -3 -16 -15 -6 -16 13 -21 70
-6 70 5 0 11 -10 15 -22z m-1560 -300 c4 7 11 10 16 7 5 -3 13 2 18 11 8 14
13 11 33 -17 13 -19 27 -35 31 -37 4 -2 8 -19 8 -38 0 -50 -33 -79 -92 -80
-26 0 -45 3 -42 8 3 4 -2 8 -10 8 -10 0 -16 9 -16 25 0 14 4 25 9 25 4 0 7 11
6 25 -2 14 1 27 6 31 5 3 9 20 10 37 1 30 1 30 8 7 5 -17 9 -21 15 -12z m836
-318 c0 -5 -2 -10 -4 -10 -3 0 -8 5 -11 10 -3 6 -1 10 4 10 6 0 11 -4 11 -10z
m-1385 -60 c-12 -19 -43 -31 -51 -18 -4 7 -3 8 5 4 6 -4 14 0 17 8 3 9 13 16
21 16 8 0 11 -4 8 -10z m-96 -47 c-7 -10 -15 -20 -16 -22 -2 -2 -3 5 -3 17 0
14 6 22 16 22 14 0 15 -3 3 -17z m41 3 c0 -3 -4 -8 -10 -11 -5 -3 -10 -1 -10
4 0 6 5 11 10 11 6 0 10 -2 10 -4z m410 -111 c0 -5 -5 -3 -10 5 -5 8 -10 20
-10 25 0 6 5 3 10 -5 5 -8 10 -19 10 -25z m121 -16 c19 -9 15 -13 -38 -39 -31
-16 -60 -27 -63 -25 -3 1 -11 -3 -18 -11 -10 -10 -10 -14 -1 -14 7 0 9 -3 6
-7 -4 -3 -24 1 -44 10 -84 36 -228 44 -258 13 -13 -12 -21 -14 -28 -7 -14 14
-47 14 -47 0 0 -6 -7 -9 -15 -6 -8 4 -17 1 -21 -4 -4 -7 -10 -7 -16 -1 -7 7
-3 17 9 29 28 28 53 35 71 21 12 -10 14 -10 8 0 -5 8 0 12 13 12 12 0 21 4 21
9 0 7 68 7 190 -2 19 -1 51 2 70 7 29 7 94 19 133 25 5 0 17 -4 28 -10z m-551
-59 c0 -5 -4 -10 -10 -10 -5 0 -10 5 -10 10 0 6 5 10 10 10 6 0 10 -4 10 -10z
m-12 -28 c2 -7 -2 -10 -12 -6 -9 3 -16 11 -16 16 0 13 23 5 28 -10z m-658 -2
c0 -5 -4 -10 -10 -10 -5 0 -10 5 -10 10 0 6 5 10 10 10 6 0 10 -4 10 -10z
m143 -75 c-3 -9 -8 -14 -10 -11 -3 3 -2 9 2 15 9 16 15 13 8 -4z m87 -30 c0
-5 -5 -3 -10 5 -5 8 -10 20 -10 25 0 6 5 3 10 -5 5 -8 10 -19 10 -25z m-140 1
c0 -3 -4 -8 -10 -11 -5 -3 -10 -1 -10 4 0 6 5 11 10 11 6 0 10 -2 10 -4z m117
-28 c-3 -8 -6 -5 -6 6 -1 11 2 17 5 13 3 -3 4 -12 1 -19z m-57 2 c0 -5 -7 -7
-16 -3 -13 5 -15 2 -9 -17 5 -15 4 -20 -4 -16 -6 4 -14 0 -18 -9 -3 -10 0 -21
8 -26 9 -6 10 -9 2 -9 -25 0 -40 68 -19 82 16 11 56 10 56 -2z m26 -27 c-10
-10 -19 5 -10 18 6 11 8 11 12 0 2 -7 1 -15 -2 -18z m45 0 c-12 -20 -14 -14
-5 12 4 9 9 14 11 11 3 -2 0 -13 -6 -23z m1079 -23 c10 0 22 -9 25 -20 3 -11
10 -20 15 -20 13 0 0 -32 -19 -50 -41 -38 -92 -70 -113 -70 -18 0 -20 -2 -8
-10 13 -8 12 -10 -2 -10 -10 0 -18 8 -19 18 0 13 -2 12 -9 -5 -5 -13 -12 -23
-16 -23 -3 0 -4 6 -1 13 2 7 -6 18 -19 24 -20 9 -24 8 -25 -5 -1 -10 -4 -7 -9
8 -8 24 -8 23 -9 -7 -1 -18 -5 -33 -11 -33 -5 0 -10 5 -10 11 0 5 -4 8 -9 4
-5 -3 -16 2 -24 10 -16 16 -32 21 -24 8 3 -5 -1 -13 -8 -20 -11 -10 -15 -10
-18 0 -3 7 -6 4 -6 -7 -1 -15 -4 -16 -16 -6 -8 7 -27 10 -41 7 -16 -3 -27 0
-31 9 -3 8 -14 14 -24 14 -10 0 -19 5 -19 12 0 6 -18 28 -40 49 -22 21 -40 35
-40 32 0 -4 -3 -4 -6 0 -4 3 1 13 10 22 9 9 16 13 16 9 0 -5 5 -3 11 3 14 14
41 5 32 -11 -4 -6 1 -5 11 3 11 9 16 24 13 38 -2 12 0 20 4 17 5 -3 37 -7 72
-9 78 -5 97 -8 125 -24 16 -9 32 -9 59 -2 20 6 39 8 43 6 4 -3 13 2 20 11 9 9
23 13 39 9 14 -3 33 -1 41 5 8 5 11 10 7 10 -5 0 -5 6 0 13 6 8 9 5 11 -10 2
-15 10 -23 22 -23z m-1059 7 c-10 -9 -11 -8 -5 6 3 10 9 15 12 12 3 -3 0 -11
-7 -18z m1123 -25 c-21 -5 -26 2 -18 22 6 15 7 15 20 -1 11 -15 10 -19 -2 -21z
m-1163 -31 c-5 -3 -7 -18 -4 -33 3 -15 9 -25 13 -23 5 3 12 0 16 -6 5 -8 3 -9
-6 -4 -8 5 -11 3 -8 -6 3 -8 14 -13 24 -11 18 2 18 2 2 -8 -10 -6 -18 -16 -18
-21 0 -6 4 -8 9 -5 5 4 20 2 33 -3 16 -7 18 -10 6 -10 -9 -1 -25 -9 -34 -18
-17 -17 -18 -17 -11 0 5 15 3 17 -12 12 -10 -3 -24 1 -31 10 -17 20 -5 32 15
15 16 -13 20 -3 6 18 -4 8 -14 13 -22 12 -25 -4 -39 0 -39 10 0 5 6 7 14 4 13
-5 31 24 21 34 -3 3 -5 0 -5 -6 0 -7 -7 -12 -16 -12 -11 0 -14 5 -10 16 3 9 6
20 6 25 0 5 9 9 20 9 28 0 25 17 -5 24 -14 4 -25 11 -25 17 0 6 7 9 15 6 8 -4
17 -1 21 4 3 6 13 -2 20 -17 9 -16 11 -30 5 -33z m42 -14 c-7 -11 -23 2 -23
19 0 12 2 12 14 2 8 -7 12 -16 9 -21z m-106 -3 c-9 -9 -28 6 -21 18 4 6 10 6
17 -1 6 -6 8 -13 4 -17z m416 -107 c10 -15 15 -32 11 -38 -3 -6 2 -9 12 -7 12
2 21 -6 29 -27 15 -46 36 -67 52 -53 11 8 12 7 7 -6 -4 -12 0 -16 16 -16 13 0
19 -4 14 -11 -4 -8 0 -9 15 -4 15 4 21 3 19 -7 -2 -8 6 -13 20 -13 12 0 26 -5
30 -11 9 -14 79 -27 84 -17 3 4 3 2 1 -6 -2 -9 3 -12 17 -8 11 3 23 1 26 -5 3
-5 28 -7 57 -3 46 6 140 11 265 14 33 1 42 5 42 19 0 12 2 14 8 4 5 -7 16 -10
25 -6 11 4 17 1 17 -7 1 -10 5 -9 14 4 7 9 16 17 19 17 4 0 4 -8 1 -17 -5 -17
-5 -17 9 0 14 17 15 17 22 0 6 -17 7 -17 21 1 8 11 14 17 14 13 0 -4 8 -4 18
2 12 6 21 4 31 -6 12 -13 11 -15 -10 -9 -13 3 -18 3 -11 0 17 -8 15 -24 -2
-24 -8 0 -17 -4 -21 -9 -3 -5 8 -9 24 -9 20 1 28 5 24 14 -3 8 -1 14 5 14 18
0 22 -44 7 -74 -18 -34 -19 -46 -5 -46 6 0 10 7 10 15 0 8 5 15 11 15 5 0 9
-8 7 -17 -1 -10 2 -24 6 -32 7 -11 5 -13 -7 -8 -14 5 -16 2 -11 -18 4 -15 2
-25 -5 -25 -6 0 -11 12 -11 28 -1 23 -2 24 -11 10 -5 -10 -17 -18 -25 -18 -8
0 -13 -4 -10 -9 3 -5 -1 -14 -9 -21 -8 -7 -15 -18 -15 -25 0 -8 -6 -16 -12
-19 -10 -5 -10 -7 0 -12 6 -3 12 -10 12 -15 0 -10 -32 0 -41 14 -3 5 -9 0 -11
-11 -4 -15 -1 -19 16 -16 11 2 15 2 9 -2 -7 -3 -13 -12 -13 -19 0 -8 -7 -11
-20 -8 -13 4 -22 -1 -27 -13 -6 -16 -7 -16 -14 2 -7 17 -8 16 -9 -6 -2 -14 -2
-28 -2 -31 1 -4 -8 -5 -18 -2 -11 3 -20 1 -20 -4 0 -5 -13 -8 -29 -5 -16 2
-32 -1 -35 -7 -8 -12 -76 -15 -76 -3 0 4 -22 7 -50 7 -27 0 -50 -3 -50 -8 0
-4 -8 -4 -17 2 -11 6 -26 5 -42 -1 -14 -5 -22 -6 -18 -2 3 4 -1 13 -11 20 -24
19 -40 17 -16 -1 19 -16 19 -16 -1 -13 -11 2 -21 12 -24 23 -4 25 -23 38 -33
22 -6 -9 -8 -9 -8 1 0 20 -18 14 -25 -9 -7 -21 -7 -21 -28 -1 -23 20 -71 37
-61 21 3 -5 0 -9 -6 -9 -7 0 -10 -7 -7 -15 9 -22 -8 -26 -21 -4 -8 12 -9 19
-1 19 5 0 7 5 4 10 -14 23 -27 9 -21 -22 l6 -33 -20 23 c-11 13 -16 30 -13 39
5 12 2 15 -10 10 -11 -4 -17 -1 -17 8 0 8 -4 15 -9 15 -5 0 -7 10 -4 23 3 12
2 19 -2 15 -9 -9 -34 20 -35 40 0 6 8 12 18 12 14 0 15 -2 2 -10 -13 -8 -12
-10 3 -10 14 0 16 5 11 28 -8 32 -24 53 -24 30 0 -9 -9 -18 -20 -21 -11 -3
-20 -1 -20 4 0 5 5 9 10 9 6 0 16 11 22 25 6 14 17 25 25 25 7 0 13 5 13 11 0
6 -7 9 -15 6 -8 -4 -17 -2 -20 3 -3 5 3 11 14 15 13 4 17 12 14 25 -3 11 0 20
6 20 5 0 8 7 5 15 -6 14 -8 13 -19 -2 -7 -10 -11 -22 -8 -27 4 -5 1 -6 -5 -2
-6 4 -8 21 -5 41 4 26 2 36 -11 41 -23 9 -20 22 7 27 19 4 18 4 -5 6 -19 1
-28 -4 -28 -15 0 -8 -5 -12 -11 -9 -6 4 -8 13 -6 19 3 8 -9 19 -29 26 -26 10
-34 20 -35 39 -1 17 -3 20 -6 9 -2 -10 -8 -18 -13 -18 -14 0 -21 32 -9 46 9
11 7 14 -9 14 -13 0 -21 8 -24 25 -5 25 -4 26 41 29 8 1 16 7 19 14 2 7 -2 10
-11 6 -23 -8 -28 11 -6 24 11 7 19 8 19 2 0 -5 5 -10 10 -10 6 0 9 3 9 8 -5
31 24 4 64 -61z m-223 -7 c0 -5 -2 -10 -4 -10 -3 0 -8 5 -11 10 -3 6 -1 10 4
10 6 0 11 -4 11 -10z m120 -115 c8 -9 9 -15 2 -15 -6 0 -14 5 -17 10 -4 6 -11
7 -17 4 -7 -4 -8 -2 -4 4 10 16 21 15 36 -3z m10 -35 c0 -5 -2 -10 -4 -10 -3
0 -8 5 -11 10 -3 6 -1 10 4 10 6 0 11 -4 11 -10z m120 -44 c0 -3 -4 -8 -10
-11 -5 -3 -10 -1 -10 4 0 6 5 11 10 11 6 0 10 -2 10 -4z m950 -77 c0 -6 -4 -7
-10 -4 -5 3 -10 11 -10 16 0 6 5 7 10 4 6 -3 10 -11 10 -16z m-90 -154 c0 -8
-4 -15 -10 -15 -5 0 -7 7 -4 15 4 8 8 15 10 15 2 0 4 -7 4 -15z m-672 -136
c-2 -6 -8 -10 -13 -10 -5 0 -11 4 -13 10 -2 6 4 11 13 11 9 0 15 -5 13 -11z
m-399 -580 c15 -6 26 -69 12 -69 -6 0 -11 9 -11 20 0 11 -4 20 -8 20 -5 0 -18
19 -31 43 l-22 42 25 -26 c14 -15 30 -29 35 -30z m-39 -19 c0 -5 -2 -10 -4
-10 -3 0 -8 5 -11 10 -3 6 -1 10 4 10 6 0 11 -4 11 -10z m46 -87 c-9 -10 -35
29 -36 52 0 16 5 13 21 -13 12 -18 19 -36 15 -39z m1484 -258 c0 -5 -5 -3 -10
5 -5 8 -10 20 -10 25 0 6 5 3 10 -5 5 -8 10 -19 10 -25z m-1110 -5 c0 -5 -2
-10 -4 -10 -3 0 -8 5 -11 10 -3 6 -1 10 4 10 6 0 11 -4 11 -10z m60 -10 c0 -5
-4 -10 -10 -10 -5 0 -10 5 -10 10 0 6 5 10 10 10 6 0 10 -4 10 -10z m1012 -13
c-12 -13 -19 -27 -15 -31 4 -4 0 -4 -8 -1 -17 7 -22 38 -5 32 6 -2 17 2 24 10
23 23 26 14 4 -10z m-1132 -32 c11 -13 10 -14 -4 -9 -9 3 -16 10 -16 15 0 13
6 11 20 -6z m743 -59 c-3 -17 -7 -33 -10 -36 -3 -3 -3 7 -1 23 3 15 1 27 -3
27 -5 0 -9 4 -9 8 0 5 6 9 14 9 10 0 12 -9 9 -31z"/>
<path d="M3361 12591 c-8 -5 -9 -11 -3 -15 5 -3 12 1 16 9 6 17 6 18 -13 6z"/>
<path d="M3025 12530 c-3 -5 -1 -10 4 -10 6 0 11 5 11 10 0 6 -2 10 -4 10 -3
0 -8 -4 -11 -10z"/>
<path d="M3500 12516 c0 -2 7 -7 16 -10 8 -3 12 -2 9 4 -6 10 -25 14 -25 6z"/>
<path d="M3558 12513 c7 -3 16 -2 19 1 4 3 -2 6 -13 5 -11 0 -14 -3 -6 -6z"/>
<path d="M2836 12424 c-6 -15 -4 -15 11 -3 10 7 20 15 22 16 2 2 -3 3 -11 3
-9 0 -19 -7 -22 -16z"/>
<path d="M3633 12254 c-3 -8 0 -21 6 -27 9 -9 11 -8 5 7 -6 16 -4 18 9 13 9
-3 17 -2 17 2 0 17 -31 21 -37 5z"/>
<path d="M2395 12171 c-3 -5 -1 -12 5 -16 5 -3 10 1 10 9 0 18 -6 21 -15 7z"/>
<path d="M3660 12090 c0 -5 5 -10 11 -10 5 0 7 5 4 10 -3 6 -8 10 -11 10 -2 0
-4 -4 -4 -10z"/>
<path d="M2475 12079 c-4 -6 -5 -12 -2 -15 2 -3 7 2 10 11 7 17 1 20 -8 4z"/>
<path d="M2405 11990 c3 -5 13 -10 21 -10 8 0 12 5 9 10 -3 6 -13 10 -21 10
-8 0 -12 -4 -9 -10z"/>
<path d="M4050 11841 c0 -5 5 -13 10 -16 6 -3 10 -2 10 4 0 5 -4 13 -10 16 -5
3 -10 2 -10 -4z"/>
<path d="M3544 11608 l-19 -23 23 19 c21 18 27 26 19 26 -2 0 -12 -10 -23 -22z"/>
<path d="M2905 10920 c-3 -5 -1 -10 4 -10 6 0 11 5 11 10 0 6 -2 10 -4 10 -3
0 -8 -4 -11 -10z"/>
<path d="M2950 10680 c0 -5 5 -10 11 -10 5 0 7 5 4 10 -3 6 -8 10 -11 10 -2 0
-4 -4 -4 -10z"/>
<path d="M2926 10662 c-4 -7 -5 -16 -2 -19 3 -3 1 -12 -5 -20 -9 -10 -7 -13 9
-13 11 0 22 8 25 20 3 11 1 18 -3 15 -5 -3 -10 3 -12 12 -3 14 -5 15 -12 5z"/>
<path d="M2897 10513 c-31 -86 -14 -98 23 -16 23 53 25 63 7 63 -7 0 -21 -21
-30 -47z"/>
<path d="M2160 10116 c0 -9 5 -16 10 -16 6 0 10 4 10 9 0 6 -4 13 -10 16 -5 3
-10 -1 -10 -9z"/>
<path d="M2455 9870 c3 -5 14 -10 23 -10 15 0 15 2 2 10 -20 13 -33 13 -25 0z"/>
<path d="M2300 9860 c0 -5 5 -10 10 -10 6 0 10 5 10 10 0 6 -4 10 -10 10 -5 0
-10 -4 -10 -10z"/>
<path d="M2392 9827 c5 -10 13 -15 19 -12 5 4 9 -1 9 -9 0 -9 5 -16 11 -16 6
0 8 9 4 20 -4 11 -2 20 4 20 6 0 11 4 11 10 0 5 -15 9 -34 7 -29 -2 -33 -5
-24 -20z"/>
<path d="M2345 9830 c-3 -5 1 -10 9 -10 9 0 16 5 16 10 0 6 -4 10 -9 10 -6 0
-13 -4 -16 -10z"/>
<path d="M2495 11240 c-8 -13 5 -13 25 0 13 8 13 10 -2 10 -9 0 -20 -4 -23
-10z"/>
<path d="M3800 10850 c0 -14 15 -19 29 -11 9 6 7 10 -8 14 -12 3 -21 1 -21 -3z"/>
<path d="M3830 10820 c0 -5 5 -10 10 -10 6 0 10 5 10 10 0 6 -4 10 -10 10 -5
0 -10 -4 -10 -10z"/>
<path d="M4525 10761 c-3 -5 2 -17 11 -25 22 -23 31 -20 10 3 -13 15 -14 20
-4 24 9 4 9 6 1 6 -6 1 -14 -3 -18 -8z"/>
<path d="M3855 10220 c-3 -5 -1 -10 4 -10 6 0 11 5 11 10 0 6 -2 10 -4 10 -3
0 -8 -4 -11 -10z"/>
<path d="M2740 9365 c0 -8 4 -15 10 -15 5 0 7 7 4 15 -4 8 -8 15 -10 15 -2 0
-4 -7 -4 -15z"/>
<path d="M2780 9346 c0 -9 5 -16 10 -16 6 0 10 4 10 9 0 6 -4 13 -10 16 -5 3
-10 -1 -10 -9z"/>
<path d="M2935 9210 c3 -5 8 -10 11 -10 2 0 4 5 4 10 0 6 -5 10 -11 10 -5 0
-7 -4 -4 -10z"/>
<path d="M3635 9089 c-4 -6 -5 -13 -2 -16 7 -7 27 6 27 18 0 12 -17 12 -25 -2z"/>
<path d="M2945 8950 c3 -5 8 -10 11 -10 2 0 4 5 4 10 0 6 -5 10 -11 10 -5 0
-7 -4 -4 -10z"/>
<path d="M3050 8935 c0 -3 7 -14 16 -23 15 -14 16 -14 13 3 -4 17 -29 35 -29
20z"/>
<path d="M1646 10243 c9 -38 27 -70 31 -57 4 11 -24 84 -32 84 -3 0 -2 -12 1
-27z"/>
<path d="M4730 8707 c0 -2 11 -32 25 -68 107 -270 101 -410 -35 -832 -140
-439 -179 -582 -450 -1662 -110 -434 -237 -936 -284 -1115 -48 -179 -126 -480
-175 -670 -50 -190 -118 -451 -152 -580 -33 -129 -73 -280 -86 -335 -14 -55
-29 -103 -32 -107 -19 -22 -9 957 20 1942 16 523 5 635 -92 981 l-41 149 22
57 c13 32 35 75 49 95 96 136 120 167 182 228 38 37 69 74 69 81 0 22 95 109
118 109 23 0 72 40 72 59 0 15 -17 14 -24 -1 -3 -7 -4 -4 -1 8 12 49 -389 283
-436 253 -11 -7 -9 -9 7 -9 33 0 38 -27 7 -35 -26 -6 -419 2 -458 10 -22 5
-31 41 -12 48 7 2 -1 2 -18 -1 -108 -17 -285 -107 -338 -173 -15 -19 -57 -69
-93 -111 -36 -43 -63 -78 -60 -78 4 0 27 11 54 24 26 13 61 28 79 34 40 12 39
13 133 -143 90 -148 166 -302 186 -375 8 -30 19 -63 24 -72 6 -11 4 -29 -6
-53 -8 -20 -21 -84 -29 -143 -12 -91 -21 -123 -64 -215 -98 -208 -145 -369
-206 -702 -80 -442 -141 -994 -176 -1610 -6 -110 -14 -209 -18 -220 -9 -22
-30 85 -112 550 -91 521 -132 852 -174 1425 -21 299 -29 797 -16 1090 15 326
46 708 62 745 9 22 13 120 14 365 1 353 13 484 65 705 10 44 17 81 15 83 -4 5
-87 -114 -120 -173 -37 -67 -228 -255 -285 -282 -25 -11 -101 -45 -170 -74
-69 -29 -237 -106 -375 -172 -451 -215 -540 -255 -681 -303 -76 -26 -204 -71
-284 -101 -80 -31 -183 -69 -230 -85 -47 -17 -111 -43 -142 -59 l-58 -29 0
-3580 0 -3580 3520 0 3520 0 0 3705 0 3704 -102 31 c-267 82 -326 103 -498
183 -419 192 -959 417 -1003 417 -17 0 -91 52 -149 105 -219 199 -306 288
-364 372 -59 84 -163 193 -185 193 -5 0 -9 -1 -9 -3z m1982 -8287 c10 -17 31
-38 48 -48 16 -9 30 -19 30 -22 0 -3 -14 -13 -30 -22 -17 -10 -38 -31 -48 -48
-20 -36 -28 -37 -36 -7 -3 12 -15 33 -27 47 -11 14 -18 20 -15 13 5 -8 0 -8
-19 0 -30 15 -33 31 -4 22 14 -5 19 -3 15 3 -8 13 28 34 39 24 5 -4 5 -2 2 4
-6 11 13 64 23 64 3 0 13 -14 22 -30z"/>
<path d="M2670 8195 c0 -8 -4 -15 -10 -15 -5 0 -10 -8 -10 -17 0 -15 2 -16 10
-3 12 19 22 7 27 -32 4 -38 11 -47 22 -29 7 11 11 10 20 -5 11 -17 11 -16 5 6
-19 71 -64 137 -64 95z"/>
<path d="M2725 8160 c-3 -5 1 -10 10 -10 9 0 13 5 10 10 -3 6 -8 10 -10 10 -2
0 -7 -4 -10 -10z"/>
<path d="M2550 8003 c0 -6 8 -17 18 -24 16 -13 16 -13 2 6 -8 11 -16 22 -17
24 -2 2 -3 0 -3 -6z"/>
<path d="M2646 7871 c73 -98 290 -328 300 -319 3 3 -47 60 -111 126 -64 66
-130 137 -148 158 -66 79 -87 97 -41 35z"/>
<path d="M3531 7896 c-9 -11 -8 -15 5 -20 20 -8 34 1 34 20 0 18 -24 18 -39 0z"/>
<path d="M3946 7881 c-4 -5 -2 -12 3 -15 5 -4 12 -2 15 3 4 5 2 12 -3 15 -5 4
-12 2 -15 -3z"/>
<path d="M3154 7872 c3 -5 17 -12 32 -15 30 -5 20 8 -15 18 -15 4 -21 3 -17
-3z"/>
<path d="M3580 7864 c0 -8 5 -12 10 -9 6 3 10 10 10 16 0 5 -4 9 -10 9 -5 0
-10 -7 -10 -16z"/>
<path d="M3052 7823 c2 -10 11 -19 21 -21 16 -3 17 -1 5 17 -16 25 -31 27 -26
4z"/>
<path d="M3600 7823 c0 -4 5 -15 10 -23 8 -13 10 -13 10 2 0 9 -4 20 -10 23
-5 3 -10 3 -10 -2z"/>
<path d="M3098 7773 c7 -3 16 -2 19 1 4 3 -2 6 -13 5 -11 0 -14 -3 -6 -6z"/>
<path d="M3595 7760 c-3 -5 -1 -10 4 -10 6 0 11 5 11 10 0 6 -2 10 -4 10 -3 0
-8 -4 -11 -10z"/>
<path d="M3745 7759 c4 -6 -2 -9 -17 -8 -35 3 -58 0 -58 -8 0 -10 63 -9 78 1
15 9 16 26 1 26 -5 0 -7 -5 -4 -11z"/>
<path d="M3099 7749 c15 -6 21 -15 17 -24 -3 -8 -1 -15 4 -15 6 0 10 10 10 23
0 18 -6 23 -27 24 -27 2 -28 2 -4 -8z"/>
<path d="M3630 7730 c0 -5 5 -10 11 -10 5 0 7 5 4 10 -3 6 -8 10 -11 10 -2 0
-4 -4 -4 -10z"/>
<path d="M3839 7683 c-13 -16 -12 -17 4 -4 9 7 17 15 17 17 0 8 -8 3 -21 -13z"/>
<path d="M3170 7686 c0 -2 7 -7 16 -10 8 -3 12 -2 9 4 -6 10 -25 14 -25 6z"/>
<path d="M3005 7490 c10 -11 20 -20 22 -20 2 0 -1 9 -7 20 -6 11 -16 20 -22
20 -6 0 -3 -9 7 -20z"/>
<path d="M3040 7474 c0 -6 10 -15 55 -54 20 -16 16 -10 -10 18 -39 42 -45 47
-45 36z"/>
</g>
</svg>
